<?xml version="1.0" encoding="UTF-8"?>
<svg version="1.1" xmlns="http://www.w3.org/2000/svg" width="336" height="412">
<path d="M0 0 C2.53318902 2.53318902 2.23881688 4.11659857 2.25816262 7.57130492 C2.25233693 8.35534174 2.24651125 9.13937856 2.24050903 9.94717407 C2.24307231 11.19317904 2.24307231 11.19317904 2.24568737 12.46435583 C2.24899651 15.26359555 2.23795525 18.06259856 2.22705078 20.86181641 C2.22648697 22.86208592 2.22680263 24.86235585 2.22793579 26.86262512 C2.2285115 32.30658391 2.21672202 37.75045524 2.20278788 43.19439363 C2.19031673 48.87856387 2.18911288 54.56273592 2.18673706 60.24691772 C2.18051163 71.01686619 2.16408647 81.78677424 2.14403808 92.55670488 C2.12171209 104.81527901 2.11069397 117.07385504 2.10064721 129.33244443 C2.07972114 154.5549854 2.04452457 179.77749044 2 205 C2.66 205 3.32 205 4 205 C8.61502689 212.5186175 9.71546362 218.50777177 9.4375 227.25 C9.42879883 228.82394531 9.42879883 228.82394531 9.41992188 230.4296875 C9.32362252 236.51580663 8.75536842 241.48926316 6 247 C5.34 247 4.68 247 4 247 C3.89429688 247.59296875 3.78859375 248.1859375 3.6796875 248.796875 C2.90592401 251.30493596 1.98153209 252.42117734 0.125 254.25 C-0.38804687 254.77078125 -0.90109375 255.2915625 -1.4296875 255.828125 C-3 257 -3 257 -6 257 C-6 257.66 -6 258.32 -6 259 C-10.81946816 262.04905128 -14.22594865 263.42259486 -20 264 C-20.33 264.33 -20.66 264.66 -21 265 C-24.1785965 265.28102796 -27.37297679 265.23191624 -30.5625 265.25 C-31.88604492 265.2809375 -31.88604492 265.2809375 -33.23632812 265.3125 C-39.22902424 265.34793353 -43.51673077 264.4231168 -49 262 C-50.1446875 261.53013672 -50.1446875 261.53013672 -51.3125 261.05078125 C-52.875 260.3671875 -54.4375 259.68359375 -56 259 C-56 258.34 -56 257.68 -56 257 C-56.59296875 256.89429688 -57.1859375 256.78859375 -57.796875 256.6796875 C-60.30493596 255.90592401 -61.42117734 254.98153209 -63.25 253.125 C-63.77078125 252.61195313 -64.2915625 252.09890625 -64.828125 251.5703125 C-66 250 -66 250 -66 247 C-66.66 247 -67.32 247 -68 247 C-72.3664554 240.84173222 -72.69865853 235.68951175 -72.625 228.25 C-72.62242187 227.18265625 -72.61984375 226.1153125 -72.6171875 225.015625 C-72.42116166 217.01777088 -71.26943446 211.27313626 -66 205 C-65.34 205 -64.68 205 -64 205 C-64 204.34 -64 203.68 -64 203 C-63.34 203 -62.68 203 -62 203 C-62 202.34 -62 201.68 -62 201 C-61.34 201 -60.68 201 -60 201 C-60 200.34 -60 199.68 -60 199 C-57 197 -57 197 -54 197 C-54 196.34 -54 195.68 -54 195 C-46.52651845 190.67021338 -39.80696919 190.44947535 -31.3125 190.625 C-30.11560547 190.62628906 -28.91871094 190.62757813 -27.68554688 190.62890625 C-21.98227412 190.68603419 -17.38699403 190.98245577 -12 193 C-12 193.66 -12 194.32 -12 195 C-10.68 195 -9.36 195 -8 195 C-8 195.66 -8 196.32 -8 197 C-7.34 197 -6.68 197 -6 197 C-6 134.3 -6 71.6 -6 7 C-7.485 7.99 -7.485 7.99 -9 9 C-10.35953597 9.52142846 -11.73705381 9.9972375 -13.125 10.4375 C-13.92292969 10.6953125 -14.72085937 10.953125 -15.54296875 11.21875 C-16.35378906 11.4765625 -17.16460937 11.734375 -18 12 C-22.70245128 13.51003671 -27.31234742 15.10430075 -31.875 17 C-36.33333638 18.82354972 -40.82261721 20.07997788 -45.48046875 21.28515625 C-48.20934622 22.00128141 -48.20934622 22.00128141 -51.5 23.5 C-55.39746095 25.17034041 -59.28035056 26.18183058 -63.375 27.25 C-66.19201172 27.99511516 -66.19201172 27.99511516 -69.5 29.5 C-72.53002078 30.79858033 -75.32366511 31.6713909 -78.5 32.5 C-82.88321155 33.65096575 -86.86567389 35.12076086 -91 37 C-95.72347925 39.01098622 -100.36963743 40.94123641 -105.375 42.125 C-108.35501335 42.84431357 -110.33826662 43.62620213 -113 45 C-115.32854378 45.69856313 -117.65600541 46.35829806 -120 47 C-124.58887465 48.29845971 -129.06097015 49.59024152 -133.4375 51.5 C-137.47078086 53.19822352 -141.50671712 54.27826892 -145.7421875 55.3515625 C-147.94970239 55.7882209 -147.94970239 55.7882209 -149 57 C-149.12411582 59.23857356 -149.17803023 61.48105484 -149.20532227 63.72290039 C-149.21522186 64.4253035 -149.22512146 65.1277066 -149.23532104 65.85139465 C-149.26702122 68.18344704 -149.29172688 70.51551984 -149.31640625 72.84765625 C-149.33696844 74.46049035 -149.35796471 76.07331896 -149.37937927 77.68614197 C-149.43467592 81.93909275 -149.48405156 86.19209277 -149.53222656 90.44512939 C-149.58238631 94.78182375 -149.63810115 99.11844627 -149.69335938 103.45507812 C-149.80103375 111.96999141 -149.90245795 120.48496465 -150 129 C-149.01 128.34 -148.02 127.68 -147 127 C-145.88625 126.855625 -144.7725 126.71125 -143.625 126.5625 C-140.03292132 126.24869703 -140.03292132 126.24869703 -137.5 124.4375 C-134.22413415 122.55387713 -131.71313863 122.78158008 -128 123 C-128 122.34 -128 121.68 -128 121 C-127.35933594 120.81824219 -126.71867188 120.63648437 -126.05859375 120.44921875 C-120.8456478 118.93427917 -115.96005594 117.19387089 -111 115 C-106.71080129 113.28432052 -104.45695509 112.94953921 -100 114 C-99.99945523 114.99852525 -99.99891047 115.9970505 -99.99834919 117.02583408 C-99.98395428 141.32126474 -99.94093974 165.61651622 -99.86790943 189.9118433 C-99.83325518 201.66089517 -99.80790332 213.40982966 -99.80444336 225.15893555 C-99.80140409 235.39937171 -99.78091841 245.63959885 -99.73947543 255.87995428 C-99.71814058 261.30228269 -99.70554743 266.72431389 -99.71384621 272.14668465 C-99.7213831 277.25134894 -99.70557782 282.35541085 -99.67193985 287.45996475 C-99.66370229 289.33241056 -99.66396168 291.20491621 -99.67340279 293.07735634 C-99.68503184 295.63736728 -99.66589736 298.19540634 -99.63923645 300.75526428 C-99.64990971 301.49360931 -99.66058297 302.23195434 -99.67157966 302.99267346 C-99.55983033 308.75699123 -97.52535305 311.7557156 -94 316 C-91.80632601 319.50987839 -91.5377076 322.92878531 -91 327 C-90.67 327.33 -90.34 327.66 -90 328 C-89.90176063 329.66429051 -89.87026369 331.33281931 -89.875 333 C-89.87242187 333.9075 -89.86984375 334.815 -89.8671875 335.75 C-90 338 -90 338 -91 339 C-91.04125 339.94875 -91.0825 340.8975 -91.125 341.875 C-92.188101 350.05919023 -98.86622683 357.84205438 -105 363 C-105.99 363 -106.98 363 -108 363 C-108 363.66 -108 364.32 -108 365 C-109.32 365 -110.64 365 -112 365 C-112 365.66 -112 366.32 -112 367 C-121.85299609 371.31068579 -135.09761853 373.6090327 -145.5 369.6875 C-146.655 369.130625 -147.81 368.57375 -149 368 C-150.43319888 367.46744523 -151.87081534 366.94663548 -153.3125 366.4375 C-157 365 -157 365 -160 363 C-160 362.34 -160 361.68 -160 361 C-161.32 360.34 -162.64 359.68 -164 359 C-164 358.34 -164 357.68 -164 357 C-164.66 357 -165.32 357 -166 357 C-166 356.34 -166 355.68 -166 355 C-166.66 355 -167.32 355 -168 355 C-175.0675251 346.01835352 -175.33784971 336.48207545 -174.38085938 325.45214844 C-173.53640097 320.01513547 -171.13046148 315.50003838 -168 311 C-167.34 311 -166.68 311 -166 311 C-166 310.34 -166 309.68 -166 309 C-165.34 309 -164.68 309 -164 309 C-164 308.34 -164 307.68 -164 307 C-163.34 307 -162.68 307 -162 307 C-162 306.34 -162 305.68 -162 305 C-156.13381714 299.13381714 -148.03841151 296.85515016 -140 296 C-139.67 295.67 -139.34 295.34 -139 295 C-127.55350947 294.18912835 -119.25007681 295.8749616 -109 301 C-109 242.92 -109 184.84 -109 125 C-116.36543247 126.91902267 -116.36543247 126.91902267 -123.5 129.5 C-127.39023334 131.16724286 -131.26249678 132.17960533 -135.3515625 133.23828125 C-137.65512999 133.90081172 -139.70761686 134.67952487 -141.875 135.6875 C-145 137 -145 137 -150 137 C-150 173.96 -150 210.92 -150 249 C-149.34 249 -148.68 249 -148 249 C-148 250.32 -148 251.64 -148 253 C-147.34 253 -146.68 253 -146 253 C-142.37201437 260.24134228 -142.35467097 271.34082089 -144.59765625 279.05566406 C-146.0199828 282.59844866 -147.87750929 285.83521474 -150 289 C-150.66 289 -151.32 289 -152 289 C-152.061875 289.5775 -152.12375 290.155 -152.1875 290.75 C-153.33384174 293.92448483 -155.25956842 295.12848575 -158 297 C-158.66 297 -159.32 297 -160 297 C-160 297.66 -160 298.32 -160 299 C-161.22782862 299.62762455 -162.45733836 300.25196065 -163.6875 300.875 C-164.37199219 301.22304688 -165.05648437 301.57109375 -165.76171875 301.9296875 C-172.27093999 305.0422994 -177.46569178 305.36623708 -184.625 305.375 C-185.65496094 305.39949219 -186.68492187 305.42398437 -187.74609375 305.44921875 C-195.22072083 305.47742489 -201.16247525 303.98940579 -208 301 C-208 300.34 -208 299.68 -208 299 C-208.61875 298.855625 -209.2375 298.71125 -209.875 298.5625 C-212 298 -212 298 -214 297 C-214 296.34 -214 295.68 -214 295 C-215.32 294.34 -216.64 293.68 -218 293 C-218 292.34 -218 291.68 -218 291 C-218.66 291 -219.32 291 -220 291 C-227.18457954 282.91734802 -228.414681 274.94511996 -228.2578125 264.37890625 C-227.76108371 257.86874861 -225.01250079 252.73809675 -222 247 C-221.34 247 -220.68 247 -220 247 C-220 246.34 -220 245.68 -220 245 C-219.34 245 -218.68 245 -218 245 C-217.67 243.68 -217.34 242.36 -217 241 C-216.01 241 -215.02 241 -214 241 C-214 240.34 -214 239.68 -214 239 C-211 237 -211 237 -208 237 C-208 236.34 -208 235.68 -208 235 C-200.72252955 230.87832991 -194.31883364 230.38592285 -186.0625 230.5 C-184.94681641 230.48453125 -183.83113281 230.4690625 -182.68164062 230.453125 C-174.0344667 230.49365071 -167.22281349 232.18479101 -160 237 C-160 237.66 -160 238.32 -160 239 C-159.01 239 -158.02 239 -157 239 C-157 206.66 -157 174.32 -157 141 C-165.77317114 143.26652512 -165.77317114 143.26652512 -173.75 146.5625 C-177.79258899 148.47801246 -181.65155838 149.89312395 -186 151 C-190.59008241 152.29119391 -195.06222068 153.5907872 -199.4375 155.5 C-203.35940635 157.15132899 -207.26538219 158.17792579 -211.375 159.25 C-214.19201172 159.99511516 -214.19201172 159.99511516 -217.5 161.5 C-220.53002078 162.79858033 -223.32366511 163.6713909 -226.5 164.5 C-230.91527265 165.65364853 -234.84680014 167.1269883 -239 169 C-242.90601126 170.48428428 -245.84632685 171.0909053 -250 171 C-249.93950216 195.42587735 -249.86202823 219.85164965 -249.76428509 244.27740765 C-249.71929913 255.61844136 -249.67989091 266.95944347 -249.65356445 278.30053711 C-249.63060707 288.18420501 -249.59723435 298.06777314 -249.55129844 307.95136195 C-249.52733576 313.18576183 -249.50862694 318.42006272 -249.50238609 323.65451622 C-249.49634903 328.58012325 -249.47639909 333.50547689 -249.44572449 338.43099022 C-249.43692214 340.23977399 -249.43322621 342.04859084 -249.43499184 343.85739517 C-249.43664068 346.32573104 -249.41997913 348.79329086 -249.39872742 351.26152039 C-249.40357499 351.97845446 -249.40842257 352.69538853 -249.41341704 353.43404788 C-249.3507558 357.83939025 -248.47506757 360.39140963 -246 364 C-245.62768555 366.69140625 -245.62768555 366.69140625 -245.63671875 369.5625 C-245.63768555 371.12871094 -245.63768555 371.12871094 -245.63867188 372.7265625 C-245.65478516 373.80679687 -245.67089844 374.88703125 -245.6875 376 C-245.68427734 377.08023437 -245.68105469 378.16046875 -245.67773438 379.2734375 C-245.71246983 384.38902317 -245.85131376 388.28668377 -248 393 C-248.66 393 -249.32 393 -250 393 C-250.144375 393.61875 -250.28875 394.2375 -250.4375 394.875 C-251 397 -251 397 -252 399 C-252.66 399 -253.32 399 -254 399 C-254 399.66 -254 400.32 -254 401 C-254.66 401 -255.32 401 -256 401 C-256 401.66 -256 402.32 -256 403 C-256.66 403 -257.32 403 -258 403 C-258 403.66 -258 404.32 -258 405 C-263.98733432 410.98733432 -271.10712974 412.17267853 -279.30078125 412.328125 C-281.29277038 412.32026318 -283.28484576 412.3121114 -285.27661133 412.28125 C-287.32586759 412.24979481 -289.37435302 412.24023692 -291.42382812 412.234375 C-302.26430607 412.14838212 -302.26430607 412.14838212 -306 411 C-306 410.34 -306 409.68 -306 409 C-306.721875 408.896875 -307.44375 408.79375 -308.1875 408.6875 C-311.27793421 407.93206053 -313.41743841 406.84468685 -316 405 C-316 404.34 -316 403.68 -316 403 C-316.66 403 -317.32 403 -318 403 C-318 402.34 -318 401.68 -318 401 C-318.66 401 -319.32 401 -320 401 C-320 400.34 -320 399.68 -320 399 C-320.66 399 -321.32 399 -322 399 C-324 396 -324 396 -324 393 C-324.66 393 -325.32 393 -326 393 C-327.53213892 387.80219005 -327.18430528 382.49852744 -327.1875 377.125 C-327.19974609 376.04863281 -327.21199219 374.97226562 -327.22460938 373.86328125 C-327.23617558 367.6098191 -326.83484174 362.66968348 -324 357 C-323.34 357 -322.68 357 -322 357 C-321.89429688 356.40703125 -321.78859375 355.8140625 -321.6796875 355.203125 C-320.90592401 352.69506404 -319.98153209 351.57882266 -318.125 349.75 C-317.61195313 349.22921875 -317.09890625 348.7084375 -316.5703125 348.171875 C-315 347 -315 347 -312 347 C-312 346.34 -312 345.68 -312 345 C-309 343 -309 343 -305 343 C-305 342.34 -305 341.68 -305 341 C-298.95904233 339.25808602 -293.46589727 338.6142 -287.1875 338.625 C-286.30964844 338.62516113 -285.43179688 338.62532227 -284.52734375 338.62548828 C-277.74515127 338.74462813 -272.08564616 339.88905402 -266 343 C-264.87078125 343.56074219 -264.87078125 343.56074219 -263.71875 344.1328125 C-263.1515625 344.41898437 -262.584375 344.70515625 -262 345 C-262 345.66 -262 346.32 -262 347 C-261.360625 347.144375 -260.72125 347.28875 -260.0625 347.4375 C-258 348 -258 348 -257 349 C-256.67 288.28 -256.34 227.56 -256 165 C-252.7 164.01 -249.4 163.02 -246 162 C-243.6566852 161.02361883 -241.32163121 160.02687534 -239 159 C-235.27515312 157.61231195 -233.02141462 157 -229 157 C-229 156.34 -229 155.68 -229 155 C-227.948125 154.896875 -226.89625 154.79375 -225.8125 154.6875 C-222.11843068 154.25868969 -222.11843068 154.25868969 -219.75 152.625 C-216.21359326 150.53530511 -212.65555497 149.76382207 -208.6953125 148.75 C-205.81716606 148.01354522 -205.81716606 148.01354522 -202.5 146.5 C-198.60253905 144.82965959 -194.71964944 143.81816942 -190.625 142.75 C-187.80798828 142.00488484 -187.80798828 142.00488484 -184.5 140.5 C-181.46997922 139.20141967 -178.67633489 138.3286091 -175.5 137.5 C-171.08472735 136.34635147 -167.15319986 134.8730117 -163 133 C-161.02 132.34 -159.04 131.68 -157 131 C-156.67 103.94 -156.34 76.88 -156 49 C-151.14786828 47.38262276 -148.81798756 46.77057202 -144 47 C-144 46.34 -144 45.68 -144 45 C-143.03900391 44.72736328 -143.03900391 44.72736328 -142.05859375 44.44921875 C-138.11522533 43.3032324 -134.33160378 42.14469983 -130.5625 40.5 C-126.64059365 38.84867101 -122.73461781 37.82207421 -118.625 36.75 C-115.80798828 36.00488484 -115.80798828 36.00488484 -112.5 34.5 C-108.60253905 32.82965959 -104.71964944 31.81816942 -100.625 30.75 C-97.80798828 30.00488484 -97.80798828 30.00488484 -94.5 28.5 C-91.52174026 27.22360297 -88.8082959 26.36997866 -85.6875 25.5625 C-76.71116488 23.5380401 -76.71116488 23.5380401 -69 19 C-67.9275 18.87625 -66.855 18.7525 -65.75 18.625 C-62.05264182 18.25504054 -62.05264182 18.25504054 -59.5 16.4375 C-56.22413415 14.55387713 -53.71313863 14.78158008 -50 15 C-50 14.34 -50 13.68 -50 13 C-49.35933594 12.81824219 -48.71867187 12.63648438 -48.05859375 12.44921875 C-44.11522533 11.3032324 -40.33160378 10.14469983 -36.5625 8.5 C-32.64796251 6.85177369 -28.75089142 5.82557448 -24.6484375 4.7578125 C-22.36256345 4.10374234 -20.28844527 3.348078 -18.125 2.375 C-12.31921222 -0.17954662 -6.30354066 -0.65824584 0 0 Z M-35 198 C-36.5778125 198.2165625 -36.5778125 198.2165625 -38.1875 198.4375 C-41.68166337 198.9530323 -44.69384149 199.79042981 -48 201 C-48 201.66 -48 202.32 -48 203 C-48.99 203 -49.98 203 -51 203 C-51 203.66 -51 204.32 -51 205 C-51.99 205 -52.98 205 -54 205 C-54 205.66 -54 206.32 -54 207 C-54.66 207 -55.32 207 -56 207 C-56 207.66 -56 208.32 -56 209 C-56.66 209 -57.32 209 -58 209 C-58 209.66 -58 210.32 -58 211 C-58.66 211 -59.32 211 -60 211 C-64.90887837 220.38882562 -66.83298968 226.27735645 -63.625 236.75 C-62.58984823 240.00333414 -61.42401158 241.64080156 -59 244 C-58.67 244.99 -58.34 245.98 -58 247 C-54.37039924 249.97202012 -54.37039924 249.97202012 -50 251 C-50 251.66 -50 252.32 -50 253 C-40.63781867 258.26916738 -28.91773714 258.8532506 -18.6171875 256.09375 C-16.31844208 255.17687148 -14.15502858 254.2128804 -12 253 C-12 252.34 -12 251.68 -12 251 C-8 249 -8 249 -5.875 248.25 C-3.10521317 246.40347545 -2.81519046 244.12489677 -2 241 C-1.34 241 -0.68 241 0 241 C4.16578729 232.05580015 4.16578729 232.05580015 3.1640625 222.5546875 C1.63103484 218.60108985 -0.06899239 214.77503289 -2 211 C-2.66 211 -3.32 211 -4 211 C-4 210.34 -4 209.68 -4 209 C-4.66 209 -5.32 209 -6 209 C-6 208.34 -6 207.68 -6 207 C-6.66 207 -7.32 207 -8 207 C-8 206.34 -8 205.68 -8 205 C-10.81509993 202.7226499 -10.81509993 202.7226499 -14 203 C-14 202.34 -14 201.68 -14 201 C-18.65693017 198.96259305 -30.76442044 193.76442044 -35 198 Z M-206 243 C-206 243.66 -206 244.32 -206 245 C-206.5775 245.2475 -207.155 245.495 -207.75 245.75 C-210.32939979 247.18299988 -212.06121592 248.78424676 -214 251 C-214 251.66 -214 252.32 -214 253 C-214.66 253 -215.32 253 -216 253 C-219.90301721 259.89997686 -221.08481261 266.11424676 -220 274 C-218.95572353 277.1868437 -217.64978672 280.08341276 -216 283 C-215.34 283 -214.68 283 -214 283 C-213.62875 283.928125 -213.62875 283.928125 -213.25 284.875 C-211.79371361 287.35068687 -210.62187494 287.95125002 -208 289 C-208 289.66 -208 290.32 -208 291 C-205.18490007 293.2773501 -205.18490007 293.2773501 -202 293 C-202 293.66 -202 294.32 -202 295 C-196.68947601 297.1693317 -191.89825032 297.38343337 -186.25 297.375 C-185.36344727 297.37628906 -184.47689453 297.37757813 -183.56347656 297.37890625 C-177.08142392 297.27408805 -171.66891112 296.34167392 -166 293 C-166 292.34 -166 291.68 -166 291 C-165.46375 290.79375 -164.9275 290.5875 -164.375 290.375 C-161.08021991 288.46749574 -158.40636372 285.95180616 -156 283 C-156 282.34 -156 281.68 -156 281 C-155.34 281 -154.68 281 -154 281 C-152.28005596 276.52268535 -151.72899766 272.78853369 -151.75 268 C-151.74484375 266.824375 -151.7396875 265.64875 -151.734375 264.4375 C-152.00149696 260.98062755 -152.76119517 258.22482527 -154 255 C-154.66 255 -155.32 255 -156 255 C-156.2475 253.9790625 -156.2475 253.9790625 -156.5 252.9375 C-159.75332516 246.56640489 -165.97550971 242.34216593 -172.515625 239.71484375 C-184.29786725 236.32467027 -195.06847626 238.09336617 -206 243 Z " fill="#0DF0FE" transform="translate(327,0)"/>
<path d="M0 0 C0.00054477 0.99852525 0.00108953 1.9970505 0.00165081 3.02583408 C0.01604572 27.32126474 0.05906026 51.61651622 0.13209057 75.9118433 C0.16674482 87.66089517 0.19209668 99.40982966 0.19555664 111.15893555 C0.19859591 121.39937171 0.21908159 131.63959885 0.26052457 141.87995428 C0.28185942 147.30228269 0.29445257 152.72431389 0.28615379 158.14668465 C0.2786169 163.25134894 0.29442218 168.35541085 0.32806015 173.45996475 C0.33629771 175.33241056 0.33603832 177.20491621 0.32659721 179.07735634 C0.31496816 181.63736728 0.33410264 184.19540634 0.36076355 186.75526428 C0.35009029 187.49360931 0.33941703 188.23195434 0.32842034 188.99267346 C0.44016967 194.75699123 2.47464695 197.7557156 6 202 C8.19367399 205.50987839 8.4622924 208.92878531 9 213 C9.33 213.33 9.66 213.66 10 214 C10.09823937 215.66429051 10.12973631 217.33281931 10.125 219 C10.12886719 220.36125 10.12886719 220.36125 10.1328125 221.75 C10 224 10 224 9 225 C8.95875 225.94875 8.9175 226.8975 8.875 227.875 C7.811899 236.05919023 1.13377317 243.84205438 -5 249 C-5.99 249 -6.98 249 -8 249 C-8 249.66 -8 250.32 -8 251 C-9.32 251 -10.64 251 -12 251 C-12 251.66 -12 252.32 -12 253 C-21.85299609 257.31068579 -35.09761853 259.6090327 -45.5 255.6875 C-46.655 255.130625 -47.81 254.57375 -49 254 C-50.43319888 253.46744523 -51.87081534 252.94663548 -53.3125 252.4375 C-57 251 -57 251 -60 249 C-60 248.34 -60 247.68 -60 247 C-61.32 246.34 -62.64 245.68 -64 245 C-64 244.34 -64 243.68 -64 243 C-64.66 243 -65.32 243 -66 243 C-66 242.34 -66 241.68 -66 241 C-66.66 241 -67.32 241 -68 241 C-75.0675251 232.01835352 -75.33784971 222.48207545 -74.38085938 211.45214844 C-73.53640097 206.01513547 -71.13046148 201.50003838 -68 197 C-67.34 197 -66.68 197 -66 197 C-66 196.34 -66 195.68 -66 195 C-65.34 195 -64.68 195 -64 195 C-64 194.34 -64 193.68 -64 193 C-63.34 193 -62.68 193 -62 193 C-62 192.34 -62 191.68 -62 191 C-56.13381714 185.13381714 -48.03841151 182.85515016 -40 182 C-39.67 181.67 -39.34 181.34 -39 181 C-27.55350947 180.18912835 -19.25007681 181.8749616 -9 187 C-9 128.92 -9 70.84 -9 11 C-16.36543247 12.91902267 -16.36543247 12.91902267 -23.5 15.5 C-27.39149493 17.16778354 -31.26468763 18.18061007 -35.35546875 19.23828125 C-37.64527675 19.89782713 -39.66473742 20.6731465 -41.8125 21.6875 C-45.1470364 23.0605444 -47.433914 23.26093312 -51 23 C-51.48442907 16.58131488 -51.48442907 16.58131488 -49.4375 14.125 C-46.33688815 12.69394838 -43.37283098 12.47337979 -40 12 C-39.175 11.484375 -38.35 10.96875 -37.5 10.4375 C-34.22413415 8.55387713 -31.71313863 8.78158008 -28 9 C-28 8.34 -28 7.68 -28 7 C-27.03900391 6.72736328 -27.03900391 6.72736328 -26.05859375 6.44921875 C-20.8456478 4.93427917 -15.96005594 3.19387089 -11 1 C-6.71080129 -0.71567948 -4.45695509 -1.05046079 0 0 Z " fill="#FEFEFE" transform="translate(227,114)"/>
<path d="M0 0 C0.125 3.375 0.125 3.375 0 7 C-2.36985822 9.36985822 -3.71078482 9.55790233 -6.9375 10.3125 C-12.11394613 11.64222928 -16.69331674 13.5879754 -21.51171875 15.87109375 C-24.60906785 17.27632748 -27.70643799 18.16163876 -31 19 C-35.59008241 20.29119391 -40.06222068 21.5907872 -44.4375 23.5 C-48.35940635 25.15132899 -52.26538219 26.17792579 -56.375 27.25 C-59.19201172 27.99511516 -59.19201172 27.99511516 -62.5 29.5 C-65.53002078 30.79858033 -68.32366511 31.6713909 -71.5 32.5 C-75.91527265 33.65364853 -79.84680014 35.1269883 -84 37 C-87.90601126 38.48428428 -90.84632685 39.0909053 -95 39 C-94.93950216 63.42587735 -94.86202823 87.85164965 -94.76428509 112.27740765 C-94.71929913 123.61844136 -94.67989091 134.95944347 -94.65356445 146.30053711 C-94.63060707 156.18420501 -94.59723435 166.06777314 -94.55129844 175.95136195 C-94.52733576 181.18576183 -94.50862694 186.42006272 -94.50238609 191.65451622 C-94.49634903 196.58012325 -94.47639909 201.50547689 -94.44572449 206.43099022 C-94.43692214 208.23977399 -94.43322621 210.04859084 -94.43499184 211.85739517 C-94.43664068 214.32573104 -94.41997913 216.79329086 -94.39872742 219.26152039 C-94.40357499 219.97845446 -94.40842257 220.69538853 -94.41341704 221.43404788 C-94.3507558 225.83939025 -93.47506757 228.39140963 -91 232 C-90.62768555 234.69140625 -90.62768555 234.69140625 -90.63671875 237.5625 C-90.63768555 239.12871094 -90.63768555 239.12871094 -90.63867188 240.7265625 C-90.65478516 241.80679688 -90.67089844 242.88703125 -90.6875 244 C-90.68427734 245.08023438 -90.68105469 246.16046875 -90.67773438 247.2734375 C-90.71246983 252.38902317 -90.85131376 256.28668377 -93 261 C-93.66 261 -94.32 261 -95 261 C-95.144375 261.61875 -95.28875 262.2375 -95.4375 262.875 C-96 265 -96 265 -97 267 C-97.66 267 -98.32 267 -99 267 C-99 267.66 -99 268.32 -99 269 C-99.66 269 -100.32 269 -101 269 C-101 269.66 -101 270.32 -101 271 C-101.66 271 -102.32 271 -103 271 C-103 271.66 -103 272.32 -103 273 C-108.98733432 278.98733432 -116.10712974 280.17267853 -124.30078125 280.328125 C-126.29277038 280.32026318 -128.28484576 280.3121114 -130.27661133 280.28125 C-132.32586759 280.24979481 -134.37435302 280.24023692 -136.42382812 280.234375 C-147.26430607 280.14838212 -147.26430607 280.14838212 -151 279 C-151 278.34 -151 277.68 -151 277 C-151.721875 276.896875 -152.44375 276.79375 -153.1875 276.6875 C-156.27793421 275.93206053 -158.41743841 274.84468685 -161 273 C-161 272.34 -161 271.68 -161 271 C-161.66 271 -162.32 271 -163 271 C-163 270.34 -163 269.68 -163 269 C-163.66 269 -164.32 269 -165 269 C-165 268.34 -165 267.68 -165 267 C-165.66 267 -166.32 267 -167 267 C-169 264 -169 264 -169 261 C-169.66 261 -170.32 261 -171 261 C-172.53213892 255.80219005 -172.18430528 250.49852744 -172.1875 245.125 C-172.20586914 243.51044922 -172.20586914 243.51044922 -172.22460938 241.86328125 C-172.23617558 235.6098191 -171.83484174 230.66968348 -169 225 C-168.34 225 -167.68 225 -167 225 C-166.89429688 224.40703125 -166.78859375 223.8140625 -166.6796875 223.203125 C-165.90592401 220.69506404 -164.98153209 219.57882266 -163.125 217.75 C-162.61195313 217.22921875 -162.09890625 216.7084375 -161.5703125 216.171875 C-160 215 -160 215 -157 215 C-157 214.34 -157 213.68 -157 213 C-154 211 -154 211 -150 211 C-150 210.34 -150 209.68 -150 209 C-143.95904233 207.25808602 -138.46589727 206.6142 -132.1875 206.625 C-131.30964844 206.62516113 -130.43179688 206.62532227 -129.52734375 206.62548828 C-122.74515127 206.74462813 -117.08564616 207.88905402 -111 211 C-110.2471875 211.37382812 -109.494375 211.74765625 -108.71875 212.1328125 C-108.1515625 212.41898438 -107.584375 212.70515625 -107 213 C-107 213.66 -107 214.32 -107 215 C-106.360625 215.144375 -105.72125 215.28875 -105.0625 215.4375 C-103 216 -103 216 -102 217 C-101.67 156.28 -101.34 95.56 -101 33 C-97.7 32.01 -94.4 31.02 -91 30 C-88.6566852 29.02361883 -86.32163121 28.02687534 -84 27 C-80.27515312 25.61231195 -78.02141462 25 -74 25 C-74 24.34 -74 23.68 -74 23 C-72.4221875 22.8453125 -72.4221875 22.8453125 -70.8125 22.6875 C-67.11843068 22.25868969 -67.11843068 22.25868969 -64.75 20.625 C-61.21359326 18.53530511 -57.65555497 17.76382207 -53.6953125 16.75 C-50.81716606 16.01354522 -50.81716606 16.01354522 -47.5 14.5 C-43.60253905 12.82965959 -39.71964944 11.81816942 -35.625 10.75 C-32.80798828 10.00488484 -32.80798828 10.00488484 -29.5 8.5 C-26.46997922 7.20141967 -23.67633489 6.3286091 -20.5 5.5 C-16.08472735 4.34635147 -12.15319986 2.8730117 -8 1 C-2.30107527 -1.15053763 -2.30107527 -1.15053763 0 0 Z " fill="#FEFEFE" transform="translate(172,132)"/>
</svg>
